{
  "accessors": [
    {
      "bufferView": 2,
      "componentType": 5126,
      "count": 12914,
      "max": [
        0.3040345311164856,
        -1.7849068641662598,
        0.27896666526794434
      ],
      "min": [
        -0.39315143227577209,
        -2.6446824073791504,
        -0.38420793414115906
      ],
      "type": "VEC3"
    },
    {
      "bufferView": 2,
      "byteOffset": 154968,
      "componentType": 5126,
      "count": 12914,
      "max": [
        0.99990993738174438,
        0.99999481439590454,
        0.99999815225601196
      ],
      "min": [
        -0.99987697601318359,
        -0.9999997615814209,
        -0.99998509883880615
      ],
      "type": "VEC3"
    },
    {
      "bufferView": 3,
      "componentType": 5126,
      "count": 12914,
      "max": [
        0.99991488456726074,
        0.99992251396179199,
        0.99998021125793457,
        1
      ],
      "min": [
        -0.99987667798995972,
        -0.99944669008255005,
        -0.99984484910964966,
        -1
      ],
      "type": "VEC4"
    },
    {
      "bufferView": 3,
      "byteOffset": 206624,
      "componentType": 5126,
      "count": 12914,
      "max": [
        1,
        1,
        1,
        1
      ],
      "min": [
        0.14509804546833038,
        0.12549020349979401,
        0.10980392247438431,
        1
      ],
      "type": "VEC4"
    },
    {
      "bufferView": 1,
      "componentType": 5126,
      "count": 12914,
      "max": [
        0.91642767190933228,
        0.99804693460464478
      ],
      "min": [
        0.0019531180150806904,
        0.0019531180150806904
      ],
      "type": "VEC2"
    },
    {
      "bufferView": 0,
      "componentType": 5125,
      "count": 75606,
      "max": [
        12913
      ],
      "min": [
        0
      ],
      "type": "SCALAR"
    }
  ],
  "asset": {
    "extras": {
      "author": "adelin (https://sketchfab.com/adelin)",
      "license": "SKETCHFAB Standard (https://sketchfab.com/licenses)",
      "source": "https://sketchfab.com/models/fbdf4320d43645f7855ef1bdbd7f0dff",
      "title": "Maddalena penitente - Antonio Canova"
    },
    "generator": "Sketchfab-3.19.2",
    "version": "2.0"
  },
  "bufferViews": [
    {
      "buffer": 0,
      "byteLength": 302424,
      "byteOffset": 0,
      "name": "floatBufferViews",
      "target": 34963
    },
    {
      "buffer": 0,
      "byteLength": 103312,
      "byteOffset": 302424,
      "byteStride": 8,
      "name": "floatBufferViews",
      "target": 34962
    },
    {
      "buffer": 0,
      "byteLength": 309936,
      "byteOffset": 405736,
      "byteStride": 12,
      "name": "floatBufferViews",
      "target": 34962
    },
    {
      "buffer": 0,
      "byteLength": 413248,
      "byteOffset": 715672,
      "byteStride": 16,
      "name": "floatBufferViews",
      "target": 34962
    }
  ],
  "buffers": [
    {
      "byteLength": 1128920,
      "uri": "scene.bin"
    }
  ],
  "images": [
    {
      "uri": "textures/material_baseColor.jpeg"
    },
    {
      "uri": "textures/material_normal.jpeg"
    },
    {
      "uri": "textures/material_metallicRoughness.png"
    }
  ],
  "materials": [
    {
      "doubleSided": true,
      "name": "material",
      "normalTexture": {
        "index": 1,
        "scale": 1,
        "texCoord": 0
      },
      "occlusionTexture": {
        "index": 2,
        "strength": 1,
        "texCoord": 0
      },
      "pbrMetallicRoughness": {
        "baseColorFactor": [
          1,
          1,
          1,
          1
        ],
        "baseColorTexture": {
          "index": 0,
          "texCoord": 0
        },
        "metallicFactor": 0,
        "roughnessFactor": 0.54538779589999997
      }
    }
  ],
  "meshes": [
    {
      "name": "Decimated_1_material_0",
      "primitives": [
        {
          "attributes": {
            "COLOR_0": 3,
            "NORMAL": 1,
            "POSITION": 0,
            "TANGENT": 2,
            "TEXCOORD_0": 4
          },
          "indices": 5,
          "material": 0,
          "mode": 4
        }
      ]
    }
  ],
  "nodes": [
    {
      "children": [
        1
      ],
      "name": "RootNode (gltf orientation matrix)",
      "rotation": [
        -0.70710678118654746,
        -0,
        -0,
        0.70710678118654757
      ]
    },
    {
      "children": [
        2
      ],
      "name": "RootNode (model correction matrix)"
    },
    {
      "children": [
        3
      ],
      "matrix": [
        1,
        0,
        0,
        0,
        0,
        0,
        1,
        0,
        0,
        -1,
        0,
        0,
        0,
        0,
        0,
        1
      ],
      "name": "Gipsoteca Canova.fbx"
    },
    {
      "children": [
        4
      ],
      "name": "RootNode"
    },
    {
      "children": [
        5
      ],
      "name": "Decimated_1"
    },
    {
      "mesh": 0,
      "name": "Decimated_1_material_0"
    }
  ],
  "samplers": [
    {
      "magFilter": 9729,
      "minFilter": 9987,
      "wrapS": 10497,
      "wrapT": 10497
    }
  ],
  "scene": 0,
  "scenes": [
    {
      "name": "OSG_Scene",
      "nodes": [
        0
      ]
    }
  ],
  "textures": [
    {
      "sampler": 0,
      "source": 0
    },
    {
      "sampler": 0,
      "source": 1
    },
    {
      "sampler": 0,
      "source": 2
    }
  ]
}

